<?xml version="1.0" encoding="UTF-8"?>
<svg viewBox="0 0 1440 115" version="1.1" xmlns="http://www.w3.org/2000/svg" xmlns:xlink="http://www.w3.org/1999/xlink">

    <g stroke="none" stroke-width="1" fill="none" fill-rule="evenodd">
        <g transform="translate(0.000000, -301.000000)" fill="currentColor">
            <g transform="translate(0.000000, 301.000000)">
                <path class="wave" d="M0,0.556395168 C76.7744908,33.8897285 181.799929,50.5563952 315.076313,50.5563952 C514.990891,50.5563952 608.069823,8.18583081 720.168958,0.556395168 C832.268093,-7.07304047 844.862623,66.2819738 1040,66.2819738 C1115.45234,66.2819738 1199.12326,29.2961454 1276.7566,14.5563952 C1314.23569,7.4404777 1368.65016,2.77381103 1440,0.556395168 L1440,114.556395 L0,114.556395 L0,0.556395168 Z" id="Rectangle" opacity="0.5"></path>
                <path class="wave" d="M0,60.5563952 C78.7552119,29.8897285 184.77101,14.5563952 318.047395,14.5563952 C517.961972,14.5563952 611.337915,40.5563952 720.168958,40.5563952 C829,40.5563952 844.862623,26.2819738 1040,26.2819738 C1169,26.2819738 1177.75695,64.5563952 1276.7566,64.5563952 C1324.15817,64.5563952 1378.57264,43.2230618 1440,0.556395168 L1440,114.556395 L0,114.556395 L0,60.5563952 Z" id="Rectangle" opacity="0.5"></path>
                <path class="wave" d="M0,50.5563952 C18.3707694,67.6042855 69.9298481,76.1282307 154.677236,76.1282307 C289.828717,76.1282307 299.588012,54.5563952 418.047395,54.5563952 C536.506778,54.5563952 553.837915,69.1127903 630.168958,70.5563952 C706.5,72 774.862623,56.2819738 970,56.2819738 C1099,56.2819738 1147.75695,64.5563952 1246.7566,64.5563952 C1294.15817,64.5563952 1358.57264,56.5563952 1440,40.5563952 L1440,114.556395 L0,114.556395 L0,50.5563952 Z" id="Rectangle"></path>
            </g>
        </g>
    </g>
</svg> 